<?xml version="1.0" encoding="iso-8859-1"?>
<!-- Generator: Adobe Illustrator 15.0.0, SVG Export Plug-In . SVG Version: 6.00 Build 0)  -->
<!DOCTYPE svg PUBLIC "-//W3C//DTD SVG 1.1//EN" "http://www.w3.org/Graphics/SVG/1.1/DTD/svg11.dtd">
<svg version="1.1" id="Layer_1" xmlns="http://www.w3.org/2000/svg" xmlns:xlink="http://www.w3.org/1999/xlink" x="0px" y="0px" viewBox="0 0 140 70" preserveAspectRatio="none" xml:space="preserve">
<g>
	<path style="fill:none;stroke:#ED2224;stroke-width:2;stroke-linecap:round;stroke-miterlimit:10;" d="M1.833,37.516
		c0,0,13.116,8.907,34.306,0c21.188-8.906,12.422,0,33.297,0h1.128c20.797,0,12.108-8.906,33.297,0c21.189,8.907,34.306,0,34.306,0"
		/>
	<path style="fill:none;stroke:#ED2224;stroke-width:2;stroke-linecap:round;stroke-miterlimit:10;" d="M30.13,13.239
		c0,0,13.984-12.301,25.761-12.069c11.777,0.231,7.633,6.032,14.213,6.032H70.5c6.579,0,2.434-5.801,14.213-6.032
		c11.775-0.232,25.762,12.069,25.762,12.069"/>
	<path style="fill:none;stroke:#ED2224;stroke-width:2;stroke-linecap:round;stroke-miterlimit:10;" d="M30.555,62.428
		c8.84,3.055,13.844,6.238,38.744,6.238c24.898,0,27.255-3.74,35.503-6.238"/>
</g>
</svg>
