<svg id="svg" version="1.1" width="400" height="400" xmlns="http://www.w3.org/2000/svg" xmlns:xlink="http://www.w3.org/1999/xlink" style="display: block;"><g id="svgg"><path id="path0" d="M120.400 164.600 L 120.400 182.800 140.400 182.800 L 160.400 182.800 160.400 164.600 L 160.400 146.400 140.400 146.400 L 120.400 146.400 120.400 164.600 M241.200 164.600 L 241.200 182.800 261.400 182.800 L 281.600 182.800 281.600 164.600 L 281.600 146.400 261.400 146.400 L 241.200 146.400 241.200 164.600 M80.000 237.200 L 80.000 255.200 100.200 255.200 L 120.400 255.200 120.400 237.200 L 120.400 219.200 100.200 219.200 L 80.000 219.200 80.000 237.200 M282.000 237.200 L 282.000 255.200 302.000 255.200 L 322.000 255.200 322.000 237.200 L 322.000 219.200 302.000 219.200 L 282.000 219.200 282.000 237.200 M120.400 273.800 L 120.400 292.000 201.000 292.000 L 281.600 292.000 281.600 273.800 L 281.600 255.600 201.000 255.600 L 120.400 255.600 120.400 273.800 " stroke="none" fill="#4a1717" fill-rule="evenodd"></path><path id="path1" d="M160.584 164.600 C 160.584 174.720,160.636 178.803,160.700 173.673 C 160.763 168.542,160.763 160.262,160.700 155.273 C 160.636 150.283,160.584 154.480,160.584 164.600 M89.900 255.500 C 95.455 255.562,104.545 255.562,110.100 255.500 C 115.655 255.437,111.110 255.386,100.000 255.386 C 88.890 255.386,84.345 255.437,89.900 255.500 M291.900 255.500 C 297.455 255.562,306.545 255.562,312.100 255.500 C 317.655 255.437,313.110 255.386,302.000 255.386 C 290.890 255.386,286.345 255.437,291.900 255.500 " stroke="none" fill="#4a1717" fill-rule="evenodd"></path><path id="path2" d="M120.000 18.400 L 120.000 36.800 100.000 36.800 L 80.000 36.800 80.000 55.200 L 80.000 73.600 59.800 73.600 L 39.600 73.600 39.600 91.400 L 39.600 109.200 19.800 109.200 L 0.000 109.200 0.000 200.600 L 0.000 292.000 19.800 292.000 L 39.600 292.000 39.600 310.200 L 39.600 328.400 59.800 328.400 L 80.000 328.400 80.000 346.600 L 80.000 364.800 100.000 364.800 L 120.000 364.800 120.000 382.400 L 120.000 400.000 201.000 400.000 L 282.000 400.000 282.000 382.400 L 282.000 364.800 302.200 364.800 L 322.400 364.800 322.400 346.600 L 322.400 328.400 342.600 328.400 L 362.800 328.400 362.800 310.200 L 362.800 292.000 381.400 292.000 L 400.000 292.000 400.000 200.600 L 400.000 109.200 381.400 109.200 L 362.800 109.200 362.800 91.400 L 362.800 73.600 342.600 73.600 L 322.400 73.600 322.400 55.200 L 322.400 36.800 302.200 36.800 L 282.000 36.800 282.000 18.400 L 282.000 0.000 201.000 0.000 L 120.000 0.000 120.000 18.400 M282.000 55.196 L 282.000 73.593 302.100 73.696 L 322.200 73.800 322.304 91.500 L 322.408 109.200 342.404 109.200 L 362.400 109.200 362.400 200.600 L 362.400 292.000 342.200 292.000 L 322.000 292.000 322.000 310.000 L 322.000 328.000 301.800 328.000 L 281.600 328.000 281.600 346.200 L 281.600 364.400 201.000 364.400 L 120.400 364.400 120.400 346.200 L 120.400 328.000 100.200 328.000 L 80.000 328.000 80.000 310.000 L 80.000 292.000 59.799 292.000 L 39.598 292.000 39.699 200.700 L 39.800 109.400 59.900 109.296 L 80.000 109.193 80.000 91.396 L 80.000 73.600 100.200 73.600 L 120.400 73.600 120.400 55.200 L 120.400 36.800 201.200 36.800 L 282.000 36.800 282.000 55.196 M281.784 164.600 C 281.784 174.720,281.836 178.803,281.900 173.673 C 281.963 168.542,281.963 160.262,281.900 155.273 C 281.836 150.283,281.784 154.480,281.784 164.600 M90.128 219.100 C 95.808 219.162,104.988 219.162,110.528 219.100 C 116.068 219.037,111.420 218.986,100.200 218.986 C 88.980 218.986,84.448 219.037,90.128 219.100 M281.600 236.995 L 281.600 255.198 200.700 255.300 L 119.800 255.402 200.696 255.501 L 281.592 255.600 281.700 273.900 C 281.760 283.965,281.851 275.775,281.904 255.700 L 282.000 219.200 301.996 219.200 L 321.992 219.200 322.102 237.300 L 322.212 255.400 322.206 237.200 L 322.200 219.000 301.900 218.896 L 281.600 218.793 281.600 236.995 " stroke="none" fill="#a33131" fill-rule="evenodd"></path><path id="path3" d="M281.785 55.200 C 281.785 65.430,281.836 69.615,281.900 64.500 C 281.963 59.385,281.963 51.015,281.900 45.900 C 281.836 40.785,281.785 44.970,281.785 55.200 M322.096 91.700 L 322.000 109.600 342.300 109.504 L 362.600 109.408 342.504 109.300 L 322.408 109.193 322.300 91.496 L 322.191 73.800 322.096 91.700 M49.900 109.500 C 55.455 109.562,64.545 109.562,70.100 109.500 C 75.655 109.437,71.110 109.386,60.000 109.386 C 48.890 109.386,44.345 109.437,49.900 109.500 M240.984 164.600 C 240.984 174.720,241.036 178.803,241.100 173.673 C 241.163 168.542,241.163 160.262,241.100 155.273 C 241.036 150.283,240.984 154.480,240.984 164.600 M39.600 255.400 L 39.600 292.000 59.800 292.000 L 80.000 292.000 80.000 310.000 L 80.000 328.000 100.200 328.000 L 120.400 328.000 120.400 346.200 L 120.400 364.400 201.000 364.400 L 281.600 364.400 281.600 346.200 L 281.600 328.000 301.800 328.000 L 322.000 328.000 322.000 310.000 L 322.000 292.000 342.200 292.000 L 362.400 292.000 362.400 255.400 L 362.400 218.800 342.300 218.800 L 322.200 218.800 322.308 237.200 L 322.416 255.600 302.208 255.600 L 282.000 255.600 282.000 273.800 L 282.000 292.000 201.200 292.000 L 120.400 292.000 120.400 273.800 L 120.400 255.600 100.200 255.600 L 80.000 255.600 80.000 237.200 L 80.000 218.800 59.800 218.800 L 39.600 218.800 39.600 255.400 " stroke="none" fill="#c94a4a" fill-rule="evenodd"></path><path id="path4" d="M120.400 55.200 L 120.400 73.600 100.200 73.600 L 80.000 73.600 80.000 91.600 L 80.000 109.600 59.800 109.600 L 39.600 109.600 39.600 164.200 L 39.600 218.800 80.000 218.800 L 120.400 218.800 120.400 237.000 L 120.400 255.200 201.000 255.200 L 281.600 255.200 281.600 237.000 L 281.600 218.800 322.000 218.800 L 362.400 218.800 362.400 164.200 L 362.400 109.600 342.200 109.600 L 322.000 109.600 322.000 91.600 L 322.000 73.600 301.800 73.600 L 281.600 73.600 281.600 55.200 L 281.600 36.800 201.000 36.800 L 120.400 36.800 120.400 55.200 M160.800 164.600 L 160.800 182.800 140.600 182.800 L 120.400 182.800 120.400 164.600 L 120.400 146.400 140.600 146.400 L 160.800 146.400 160.800 164.600 M282.000 164.600 L 282.000 182.800 261.400 182.800 L 240.800 182.800 240.800 164.600 L 240.800 146.400 261.400 146.400 L 282.000 146.400 282.000 164.600 " stroke="none" fill="#d67878" fill-rule="evenodd"></path></g></svg>